<?xml version="1.0" encoding="UTF-8" standalone="no"?>
<!-- Uploaded to: SVG Repo, www.svgrepo.com, Generator: SVG Repo Mixer Tools -->

<svg
   fill="#000000"
   width="800px"
   height="800px"
   viewBox="0 0 1024 1024"
   version="1.1"
   id="svg3"
   sodipodi:docname="health-medical-svgrepo-com.svg"
   xml:space="preserve"
   inkscape:version="1.4.2 (ebf0e940d0, 2025-05-08)"
   xmlns:inkscape="http://www.inkscape.org/namespaces/inkscape"
   xmlns:sodipodi="http://sodipodi.sourceforge.net/DTD/sodipodi-0.dtd"
   xmlns="http://www.w3.org/2000/svg"
   xmlns:svg="http://www.w3.org/2000/svg"><defs
     id="defs3" /><sodipodi:namedview
     id="namedview3"
     pagecolor="#ffffff"
     bordercolor="#000000"
     borderopacity="0.25"
     inkscape:showpageshadow="2"
     inkscape:pageopacity="0.0"
     inkscape:pagecheckerboard="0"
     inkscape:deskcolor="#d1d1d1"
     inkscape:zoom="0.5975"
     inkscape:cx="411.71548"
     inkscape:cy="416.7364"
     inkscape:window-width="1280"
     inkscape:window-height="731"
     inkscape:window-x="0"
     inkscape:window-y="0"
     inkscape:window-maximized="1"
     inkscape:current-layer="svg3" /><path
     d="m 829.46467,179.05004 h 61.44 c 5.657,0 10.24,4.583 10.24,10.24 v 61.44 c 0,67.865 -55.015,122.88 -122.88,122.88 h -112.64 c -67.865,0 -122.88,-55.015 -122.88,-122.88 v -61.44 c 0,-5.657 4.583,-10.24 10.24,-10.24 h 61.44 c 11.311,0 20.48,-9.169 20.48,-20.48 0,-11.311 -9.169,-20.48 -20.48,-20.48 h -61.44 c -28.278,0 -51.2,22.922 -51.2,51.2 v 61.44 c 0,90.486 73.354,163.84 163.84,163.84 h 112.64 c 90.486,0 163.84,-73.354 163.84,-163.84 v -61.44 c 0,-28.278 -22.922,-51.2 -51.2,-51.2 h -61.44 c -11.311,0 -20.48,9.169 -20.48,20.48 0,11.311 9.169,20.48 20.48,20.48 z"
     id="path1"
     style="display:none" /><path
     d="m 706.58467,409.45004 v 423.936 c 0,28.113 -23.087,51.2 -51.2,51.2 h -81.92 c -11.311,0 -20.48,9.169 -20.48,20.48 0,11.311 9.169,20.48 20.48,20.48 h 81.92 c 50.735,0 92.16,-41.425 92.16,-92.16 v -423.936 c 0,-11.311 -9.169,-20.48 -20.48,-20.48 -11.311,0 -20.48,9.169 -20.48,20.48 z"
     id="path2" /><path
     d="m 552.98467,900.97004 c 0,-42.418 -34.382,-76.8 -76.8,-76.8 -42.418,0 -76.8,34.382 -76.8,76.8 0,42.418 34.382,76.8 76.8,76.8 42.418,0 76.8,-34.382 76.8,-76.8 z m 40.96,0 c 0,65.04 -52.72,117.75996 -117.76,117.75996 -65.04,0 -117.76,-52.71996 -117.76,-117.75996 0,-65.04 52.72,-117.76 117.76,-117.76 65.04,0 117.76,52.72 117.76,117.76 z m -123.031,-485.371 c 55.982,55.982 55.982,146.752 0,202.747 l -152.064,152.053 c -19.989,19.989 -52.412,19.989 -72.401,0 L 94.382665,618.34304 c -55.981,-55.993 -55.981,-146.762 0.003,-202.746 51.387005,-51.376 132.065005,-55.602 188.263005,-12.676 56.198,-42.926 136.876,-38.7 188.265,12.678 z m -202.746,28.963 c -39.987,-39.987 -104.824,-39.987 -144.82,0 -39.987005,39.987 -39.987005,104.824 0,144.819 l 152.064,152.054 c 3.993,3.993 10.482,3.993 14.475,0 l 152.062,-152.052 c 39.989,-39.997 39.989,-104.835 0.003,-144.82 -39.997,-39.989 -104.835,-39.989 -144.821,-0.002 -7.998,7.998 -20.965,7.998 -28.963,0 z"
     id="path3" /><style
     type="text/css"
     id="style1">
	.st0{fill:none;stroke:#000000;stroke-width:2;stroke-linecap:round;stroke-linejoin:round;stroke-miterlimit:10;}
</style><g
     id="g1"
     transform="matrix(12.742824,0,0,13.01388,522.26864,33.477684)"><path
       d="M 26,12.8 24.2,5.5 C 24.1,5.2 23.9,5 23.7,4.8 18.9,2.5 13.3,2.5 8.4,4.8 8.1,4.9 7.9,5.1 7.8,5.4 L 6,12.8 c 0,0.2 0,0.5 0.2,0.7 0.1,0.2 0.4,0.4 0.6,0.4 3.1,0.7 6.1,1 9.2,1 3.1,0 6.2,-0.3 9.2,-1 0.3,-0.1 0.5,-0.2 0.6,-0.4 C 26,13.3 26,13 26,12.8 Z M 18,10 h -1 v 1 c 0,0.6 -0.4,1 -1,1 -0.6,0 -1,-0.4 -1,-1 V 10 H 14 C 13.4,10 13,9.6 13,9 13,8.4 13.4,8 14,8 h 1 V 7 c 0,-0.6 0.4,-1 1,-1 0.6,0 1,0.4 1,1 v 1 h 1 c 0.6,0 1,0.4 1,1 0,0.6 -0.4,1 -1,1 z"
       id="path1-3" /><path
       d="m 26.3,15.7 c -0.2,0.1 -0.4,0.2 -0.6,0.2 -3.2,0.7 -6.5,1.1 -9.7,1.1 -3.2,0 -6.5,-0.4 -9.7,-1.1 -0.2,0 -0.4,-0.1 -0.6,-0.2 -0.8,0.9 -1,2.5 -0.4,4.2 0.4,1.3 1.2,2.4 2.2,2.9 0.2,0.1 0.5,0.2 0.7,0.2 1.2,3.6 4.2,6 7.8,6 3.6,0 6.6,-2.4 7.8,-6 0.3,0 0.5,-0.1 0.8,-0.2 0.9,-0.4 1.8,-1.5 2.2,-2.9 0.4,-1.7 0.2,-3.3 -0.5,-4.2 z"
       id="path2-6" /></g></svg>
